# xmcd
#
# Track frame offsets: 
#        150
#        15841
#        38387
#        60591
#        84595
#        102326
#        111328
#        122192
#        141993
#
# Disc length: 2318 seconds
#
# Revision: 1
# Processed by: cddbd v1.5.1PL0 Copyright (c) Steve Scherf et al.
# Submitted via: ExactAudioCopy v0.95a5
#
DISCID=6d090c09
DTITLE=Blue Mountain - Tonight It's Now Or Never [live] [Disc 2]
DYEAR=2002
DGENRE=Rock
TTITLE0=When You're Not Mine
TTITLE1=My Wicked, Wicked Ways
TTITLE2=Soul Sister
TTITLE3=That Nasty Swing
TTITLE4=Sleepin' In My Shoes
TTITLE5=I'm Thinking Tonight Of My Blue Eyes
TTITLE6=Rye Whiskey
TTITLE7=Generic America
TTITLE8=Go 'Way Devil
EXTD=
EXTT0=
EXTT1=
EXTT2=
EXTT3=
EXTT4=
EXTT5=
EXTT6=
EXTT7=
EXTT8=
PLAYORDER=
